<svg width="405" height="477" viewBox="0 0 405 477" fill="none" xmlns="http://www.w3.org/2000/svg">
<g clip-path="url(#clip0_8_9)">
<path fill-rule="evenodd" clip-rule="evenodd" d="M236.09 76.9892C226.105 75.8517 217.089 83.0237 215.951 93.0084L213.44 115.05C212.327 124.812 219.158 133.649 228.794 135.101C228.794 135.112 228.793 135.123 228.792 135.134L255.21 138.144C259.75 134.624 258.763 109.245 257.009 96.9975C257.753 87.287 250.682 78.6518 240.925 77.5401L236.09 76.9892Z" fill="#191847"/>
<path fill-rule="evenodd" clip-rule="evenodd" d="M233.905 121.182C239.4 125.404 245.001 127.779 247.802 127.389C254.824 126.411 258.29 101.567 254.13 91.1433C249.97 80.7197 223.32 73.3465 219.735 92.6517C218.49 99.3518 220.645 105.703 224.282 111.1L212.766 145.263L234.628 147.754L233.905 121.182Z" fill="#B28B67"/>
<path fill-rule="evenodd" clip-rule="evenodd" d="M216.829 92.4358C217.535 91.8814 218.219 91.3452 218.89 90.872L218.941 90.1618C218.941 90.1618 227.401 76.9205 237.949 78.1222C248.489 79.3231 251.265 84.594 253.624 89.0745L253.631 89.0868C251.571 93.9942 246.87 95.539 241.554 97.2864C239.266 98.0385 236.863 98.8278 234.508 99.9395C233.726 99.1424 232.675 98.5984 231.478 98.462C228.711 98.1465 226.213 100.13 225.898 102.893C225.583 105.655 227.571 108.15 230.339 108.465C230.414 108.474 230.491 108.481 230.567 108.486C230.344 119.402 228.535 131.692 225.198 134.277L198.781 131.267C199.521 118.028 203.357 114.664 207.277 111.227C210.965 107.992 214.728 104.693 216.055 93.0406C216.316 92.8379 216.574 92.6356 216.829 92.4358Z" fill="#191847"/>
<path fill-rule="evenodd" clip-rule="evenodd" d="M131.222 288.469C131.222 288.469 158.543 309.131 180.814 317.904C203.086 326.677 227.387 321.002 227.387 321.002C227.387 321.002 200.813 300.372 181.375 292.715C161.937 285.058 131.222 288.469 131.222 288.469Z" fill="#BB1A64"/>
<path fill-rule="evenodd" clip-rule="evenodd" d="M195.286 333.118C195.205 332.744 195.165 332.356 195.171 331.955C195.28 323.656 182.152 228.493 183.398 212.53L232.727 231.962C231.78 244.099 219.948 317.941 216.709 332.328C214.917 356.327 201.289 430.973 201.143 436.457C200.988 442.228 188.597 443.422 188.292 436.133C187.807 424.535 188.144 393.106 190.074 374.594C191.883 357.24 193.882 341.773 195.286 333.118Z" fill="#997659"/>
<path fill-rule="evenodd" clip-rule="evenodd" d="M151.181 326.732C129.159 323.896 52.2896 304.171 46.697 303.623C40.9439 303.06 40.6012 290.63 47.9027 290.843C59.5204 291.182 90.89 293.748 109.248 296.983C124.013 299.586 137.382 302.23 146.28 304.199C154.821 280.436 173.777 222.802 180.698 211.467L224.345 228.66C217.708 239.529 166.929 317.908 160.368 325.171C158.152 327.815 154.59 327.965 151.181 326.732Z" fill="#B28B67"/>
<path fill-rule="evenodd" clip-rule="evenodd" d="M50.0674 290.763C50.643 289.956 50.4632 288.817 49.618 288.298C47.9505 287.274 45.3312 285.779 43.7668 285.46C41.3368 284.965 36.5108 284.823 36.5108 284.823C35.939 287.638 26.2335 335.415 26.2335 335.415C26.2335 335.415 32.3622 338.718 33.746 334.574C35.1296 330.432 36.1202 327.707 36.1202 327.707L51.4364 306.275C51.7138 305.887 51.6155 305.346 51.2193 305.08L47.7951 302.78C47.7951 302.78 46.7561 298.473 47.2558 296.013C47.5682 294.475 49.0224 292.229 50.0674 290.763Z" fill="#E4E4E4"/>
<path fill-rule="evenodd" clip-rule="evenodd" d="M188.108 433.965C187.413 433.261 186.264 433.24 185.606 433.98C184.309 435.44 182.382 437.757 181.798 439.24C180.89 441.544 179.918 446.266 179.918 446.266C182.594 447.321 228.032 465.219 228.032 465.219C228.032 465.219 232.346 459.768 228.499 457.683C224.653 455.598 222.136 454.147 222.136 454.147L203.643 435.334C203.308 434.994 202.76 434.997 202.43 435.34L199.571 438.306C199.571 438.306 195.144 438.575 192.805 437.654C191.34 437.077 189.374 435.25 188.108 433.965Z" fill="#E4E4E4"/>
<path fill-rule="evenodd" clip-rule="evenodd" d="M180.839 211.523C180.839 211.523 212.936 214.647 235.434 233.029C230.693 262.578 240.95 279.088 227.076 321.79C192.406 324.752 166.286 285.992 130.902 288.261C130.102 265.277 160.661 222.722 180.839 211.523Z" fill="#E12179"/>
<path fill-rule="evenodd" clip-rule="evenodd" d="M283.109 162.667L248.455 173.373L257.461 188.055L284.334 171.953C296.939 171.098 302.887 169.806 302.177 168.078C301.579 166.621 300.184 166.384 298.9 166.165C297.898 165.994 296.964 165.836 296.525 165.12C295.523 163.487 298.945 159.183 302.367 155.239C305.789 151.294 303.02 151.135 301.352 151.463C295.626 153.84 289.546 157.575 283.109 162.667ZM309.596 192.971L294.369 197.695L292.358 211.577C292.358 211.577 302.531 206.99 310.595 206.418C320.879 205.689 325.237 204.422 331.223 199.34C334.426 196.622 337.91 190.555 335.919 187.942C335.155 186.941 331.302 188.157 327.372 189.397C324.376 190.343 321.335 191.303 319.581 191.306C317.22 191.311 318.082 188.432 318.77 186.132C319.265 184.481 319.67 183.129 318.731 183.353C314.707 182.606 309.596 192.971 309.596 192.971Z" fill="#997659"/>
<path fill-rule="evenodd" clip-rule="evenodd" d="M234.04 166.485C244.987 168.592 260.022 169.252 277.567 162.566L280.906 177.396C268.025 185.835 251.176 191.494 238.071 188.444C227.743 186.039 224.986 172.418 234.04 166.485Z" fill="#311996"/>
<path fill-rule="evenodd" clip-rule="evenodd" d="M185.641 253.582C175.532 250.117 166.243 246.934 160.362 246.895C158.203 225.036 166.106 213.158 173.401 202.192C177.799 195.583 181.975 189.306 183.594 181.376C188.311 158.28 214.124 126.506 216.858 127.062L217.642 127.222L239.307 131.629L241.787 132.134C239.994 146.654 241.601 163.099 243.22 179.648C243.597 183.514 243.977 187.384 244.313 191.238C261.595 199.029 304.731 192.923 304.731 192.923C304.731 192.923 310.619 215.963 308.036 224.739C282.136 232.185 260.959 233.546 244.351 230.541C242.885 240.442 239.794 249.518 234.05 257.217C226.353 267.533 204.562 260.065 185.641 253.582Z" fill="#311996"/>
</g>
<defs>
<clipPath id="clip0_8_9">
<rect width="275.903" height="403.698" fill="white" transform="translate(147.956) rotate(21.5)"/>
</clipPath>
</defs>
</svg>
