<svg width="520" height="570" viewBox="0 0 520 570" fill="none" xmlns="http://www.w3.org/2000/svg">
<path d="M16.7742 8.38235C16.7742 13.0118 13.0192 16.7647 8.3871 16.7647C3.75503 16.7647 0 13.0118 0 8.38235C0 3.75291 3.75503 0 8.3871 0C13.0192 0 16.7742 3.75291 16.7742 8.38235Z" fill="white"/>
<path d="M67.0968 8.38235C67.0968 13.0118 63.3417 16.7647 58.7097 16.7647C54.0776 16.7647 50.3226 13.0118 50.3226 8.38235C50.3226 3.75291 54.0776 0 58.7097 0C63.3417 0 67.0968 3.75291 67.0968 8.38235Z" fill="white"/>
<path d="M117.419 8.38235C117.419 13.0118 113.664 16.7647 109.032 16.7647C104.4 16.7647 100.645 13.0118 100.645 8.38235C100.645 3.75291 104.4 0 109.032 0C113.664 0 117.419 3.75291 117.419 8.38235Z" fill="white"/>
<path d="M167.742 8.38235C167.742 13.0118 163.987 16.7647 159.355 16.7647C154.723 16.7647 150.968 13.0118 150.968 8.38235C150.968 3.75291 154.723 0 159.355 0C163.987 0 167.742 3.75291 167.742 8.38235Z" fill="white"/>
<path d="M218.065 8.38235C218.065 13.0118 214.309 16.7647 209.677 16.7647C205.045 16.7647 201.29 13.0118 201.29 8.38235C201.29 3.75291 205.045 0 209.677 0C214.309 0 218.065 3.75291 218.065 8.38235Z" fill="white"/>
<path d="M268.387 8.38235C268.387 13.0118 264.632 16.7647 260 16.7647C255.368 16.7647 251.613 13.0118 251.613 8.38235C251.613 3.75291 255.368 0 260 0C264.632 0 268.387 3.75291 268.387 8.38235Z" fill="white"/>
<path d="M318.71 8.38235C318.71 13.0118 314.955 16.7647 310.323 16.7647C305.691 16.7647 301.935 13.0118 301.935 8.38235C301.935 3.75291 305.691 0 310.323 0C314.955 0 318.71 3.75291 318.71 8.38235Z" fill="white"/>
<path d="M369.032 8.38235C369.032 13.0118 365.277 16.7647 360.645 16.7647C356.013 16.7647 352.258 13.0118 352.258 8.38235C352.258 3.75291 356.013 0 360.645 0C365.277 0 369.032 3.75291 369.032 8.38235Z" fill="white"/>
<path d="M419.355 8.38235C419.355 13.0118 415.6 16.7647 410.968 16.7647C406.336 16.7647 402.581 13.0118 402.581 8.38235C402.581 3.75291 406.336 0 410.968 0C415.6 0 419.355 3.75291 419.355 8.38235Z" fill="white"/>
<path d="M469.677 8.38235C469.677 13.0118 465.922 16.7647 461.29 16.7647C456.658 16.7647 452.903 13.0118 452.903 8.38235C452.903 3.75291 456.658 0 461.29 0C465.922 0 469.677 3.75291 469.677 8.38235Z" fill="white"/>
<path d="M520 8.38235C520 13.0118 516.245 16.7647 511.613 16.7647C506.981 16.7647 503.226 13.0118 503.226 8.38235C503.226 3.75291 506.981 0 511.613 0C516.245 0 520 3.75291 520 8.38235Z" fill="white"/>
<path d="M16.7742 58.6765C16.7742 63.3059 13.0192 67.0588 8.3871 67.0588C3.75503 67.0588 0 63.3059 0 58.6765C0 54.047 3.75503 50.2941 8.3871 50.2941C13.0192 50.2941 16.7742 54.047 16.7742 58.6765Z" fill="white"/>
<path d="M67.0968 58.6765C67.0968 63.3059 63.3417 67.0588 58.7097 67.0588C54.0776 67.0588 50.3226 63.3059 50.3226 58.6765C50.3226 54.047 54.0776 50.2941 58.7097 50.2941C63.3417 50.2941 67.0968 54.047 67.0968 58.6765Z" fill="white"/>
<path d="M117.419 58.6765C117.419 63.3059 113.664 67.0588 109.032 67.0588C104.4 67.0588 100.645 63.3059 100.645 58.6765C100.645 54.047 104.4 50.2941 109.032 50.2941C113.664 50.2941 117.419 54.047 117.419 58.6765Z" fill="white"/>
<path d="M167.742 58.6765C167.742 63.3059 163.987 67.0588 159.355 67.0588C154.723 67.0588 150.968 63.3059 150.968 58.6765C150.968 54.047 154.723 50.2941 159.355 50.2941C163.987 50.2941 167.742 54.047 167.742 58.6765Z" fill="white"/>
<path d="M218.065 58.6765C218.065 63.3059 214.309 67.0588 209.677 67.0588C205.045 67.0588 201.29 63.3059 201.29 58.6765C201.29 54.047 205.045 50.2941 209.677 50.2941C214.309 50.2941 218.065 54.047 218.065 58.6765Z" fill="white"/>
<path d="M268.387 58.6765C268.387 63.3059 264.632 67.0588 260 67.0588C255.368 67.0588 251.613 63.3059 251.613 58.6765C251.613 54.047 255.368 50.2941 260 50.2941C264.632 50.2941 268.387 54.047 268.387 58.6765Z" fill="white"/>
<path d="M318.71 58.6765C318.71 63.3059 314.955 67.0588 310.323 67.0588C305.691 67.0588 301.935 63.3059 301.935 58.6765C301.935 54.047 305.691 50.2941 310.323 50.2941C314.955 50.2941 318.71 54.047 318.71 58.6765Z" fill="white"/>
<path d="M369.032 58.6765C369.032 63.3059 365.277 67.0588 360.645 67.0588C356.013 67.0588 352.258 63.3059 352.258 58.6765C352.258 54.047 356.013 50.2941 360.645 50.2941C365.277 50.2941 369.032 54.047 369.032 58.6765Z" fill="white"/>
<path d="M419.355 58.6765C419.355 63.3059 415.6 67.0588 410.968 67.0588C406.336 67.0588 402.581 63.3059 402.581 58.6765C402.581 54.047 406.336 50.2941 410.968 50.2941C415.6 50.2941 419.355 54.047 419.355 58.6765Z" fill="white"/>
<path d="M469.677 58.6765C469.677 63.3059 465.922 67.0588 461.29 67.0588C456.658 67.0588 452.903 63.3059 452.903 58.6765C452.903 54.047 456.658 50.2941 461.29 50.2941C465.922 50.2941 469.677 54.047 469.677 58.6765Z" fill="white"/>
<path d="M520 58.6765C520 63.3059 516.245 67.0588 511.613 67.0588C506.981 67.0588 503.226 63.3059 503.226 58.6765C503.226 54.047 506.981 50.2941 511.613 50.2941C516.245 50.2941 520 54.047 520 58.6765Z" fill="white"/>
<path d="M16.7742 108.971C16.7742 113.6 13.0192 117.353 8.3871 117.353C3.75503 117.353 0 113.6 0 108.971C0 104.341 3.75503 100.588 8.3871 100.588C13.0192 100.588 16.7742 104.341 16.7742 108.971Z" fill="white"/>
<path d="M67.0968 108.971C67.0968 113.6 63.3417 117.353 58.7097 117.353C54.0776 117.353 50.3226 113.6 50.3226 108.971C50.3226 104.341 54.0776 100.588 58.7097 100.588C63.3417 100.588 67.0968 104.341 67.0968 108.971Z" fill="white"/>
<path d="M117.419 108.971C117.419 113.6 113.664 117.353 109.032 117.353C104.4 117.353 100.645 113.6 100.645 108.971C100.645 104.341 104.4 100.588 109.032 100.588C113.664 100.588 117.419 104.341 117.419 108.971Z" fill="white"/>
<path d="M167.742 108.971C167.742 113.6 163.987 117.353 159.355 117.353C154.723 117.353 150.968 113.6 150.968 108.971C150.968 104.341 154.723 100.588 159.355 100.588C163.987 100.588 167.742 104.341 167.742 108.971Z" fill="white"/>
<path d="M218.065 108.971C218.065 113.6 214.309 117.353 209.677 117.353C205.045 117.353 201.29 113.6 201.29 108.971C201.29 104.341 205.045 100.588 209.677 100.588C214.309 100.588 218.065 104.341 218.065 108.971Z" fill="white"/>
<path d="M268.387 108.971C268.387 113.6 264.632 117.353 260 117.353C255.368 117.353 251.613 113.6 251.613 108.971C251.613 104.341 255.368 100.588 260 100.588C264.632 100.588 268.387 104.341 268.387 108.971Z" fill="white"/>
<path d="M318.71 108.971C318.71 113.6 314.955 117.353 310.323 117.353C305.691 117.353 301.935 113.6 301.935 108.971C301.935 104.341 305.691 100.588 310.323 100.588C314.955 100.588 318.71 104.341 318.71 108.971Z" fill="white"/>
<path d="M369.032 108.971C369.032 113.6 365.277 117.353 360.645 117.353C356.013 117.353 352.258 113.6 352.258 108.971C352.258 104.341 356.013 100.588 360.645 100.588C365.277 100.588 369.032 104.341 369.032 108.971Z" fill="white"/>
<path d="M419.355 108.971C419.355 113.6 415.6 117.353 410.968 117.353C406.336 117.353 402.581 113.6 402.581 108.971C402.581 104.341 406.336 100.588 410.968 100.588C415.6 100.588 419.355 104.341 419.355 108.971Z" fill="white"/>
<path d="M469.677 108.971C469.677 113.6 465.922 117.353 461.29 117.353C456.658 117.353 452.903 113.6 452.903 108.971C452.903 104.341 456.658 100.588 461.29 100.588C465.922 100.588 469.677 104.341 469.677 108.971Z" fill="white"/>
<path d="M520 108.971C520 113.6 516.245 117.353 511.613 117.353C506.981 117.353 503.226 113.6 503.226 108.971C503.226 104.341 506.981 100.588 511.613 100.588C516.245 100.588 520 104.341 520 108.971Z" fill="white"/>
<path d="M16.7742 159.265C16.7742 163.894 13.0192 167.647 8.3871 167.647C3.75503 167.647 0 163.894 0 159.265C0 154.635 3.75503 150.882 8.3871 150.882C13.0192 150.882 16.7742 154.635 16.7742 159.265Z" fill="white"/>
<path d="M67.0968 159.265C67.0968 163.894 63.3417 167.647 58.7097 167.647C54.0776 167.647 50.3226 163.894 50.3226 159.265C50.3226 154.635 54.0776 150.882 58.7097 150.882C63.3417 150.882 67.0968 154.635 67.0968 159.265Z" fill="white"/>
<path d="M117.419 159.265C117.419 163.894 113.664 167.647 109.032 167.647C104.4 167.647 100.645 163.894 100.645 159.265C100.645 154.635 104.4 150.882 109.032 150.882C113.664 150.882 117.419 154.635 117.419 159.265Z" fill="white"/>
<path d="M167.742 159.265C167.742 163.894 163.987 167.647 159.355 167.647C154.723 167.647 150.968 163.894 150.968 159.265C150.968 154.635 154.723 150.882 159.355 150.882C163.987 150.882 167.742 154.635 167.742 159.265Z" fill="white"/>
<path d="M218.065 159.265C218.065 163.894 214.309 167.647 209.677 167.647C205.045 167.647 201.29 163.894 201.29 159.265C201.29 154.635 205.045 150.882 209.677 150.882C214.309 150.882 218.065 154.635 218.065 159.265Z" fill="white"/>
<path d="M268.387 159.265C268.387 163.894 264.632 167.647 260 167.647C255.368 167.647 251.613 163.894 251.613 159.265C251.613 154.635 255.368 150.882 260 150.882C264.632 150.882 268.387 154.635 268.387 159.265Z" fill="white"/>
<path d="M318.71 159.265C318.71 163.894 314.955 167.647 310.323 167.647C305.691 167.647 301.935 163.894 301.935 159.265C301.935 154.635 305.691 150.882 310.323 150.882C314.955 150.882 318.71 154.635 318.71 159.265Z" fill="white"/>
<path d="M369.032 159.265C369.032 163.894 365.277 167.647 360.645 167.647C356.013 167.647 352.258 163.894 352.258 159.265C352.258 154.635 356.013 150.882 360.645 150.882C365.277 150.882 369.032 154.635 369.032 159.265Z" fill="white"/>
<path d="M419.355 159.265C419.355 163.894 415.6 167.647 410.968 167.647C406.336 167.647 402.581 163.894 402.581 159.265C402.581 154.635 406.336 150.882 410.968 150.882C415.6 150.882 419.355 154.635 419.355 159.265Z" fill="white"/>
<path d="M469.677 159.265C469.677 163.894 465.922 167.647 461.29 167.647C456.658 167.647 452.903 163.894 452.903 159.265C452.903 154.635 456.658 150.882 461.29 150.882C465.922 150.882 469.677 154.635 469.677 159.265Z" fill="white"/>
<path d="M520 159.265C520 163.894 516.245 167.647 511.613 167.647C506.981 167.647 503.226 163.894 503.226 159.265C503.226 154.635 506.981 150.882 511.613 150.882C516.245 150.882 520 154.635 520 159.265Z" fill="white"/>
<path d="M16.7742 209.559C16.7742 214.188 13.0192 217.941 8.3871 217.941C3.75503 217.941 0 214.188 0 209.559C0 204.929 3.75503 201.176 8.3871 201.176C13.0192 201.176 16.7742 204.929 16.7742 209.559Z" fill="white"/>
<path d="M67.0968 209.559C67.0968 214.188 63.3417 217.941 58.7097 217.941C54.0776 217.941 50.3226 214.188 50.3226 209.559C50.3226 204.929 54.0776 201.176 58.7097 201.176C63.3417 201.176 67.0968 204.929 67.0968 209.559Z" fill="white"/>
<path d="M117.419 209.559C117.419 214.188 113.664 217.941 109.032 217.941C104.4 217.941 100.645 214.188 100.645 209.559C100.645 204.929 104.4 201.176 109.032 201.176C113.664 201.176 117.419 204.929 117.419 209.559Z" fill="white"/>
<path d="M167.742 209.559C167.742 214.188 163.987 217.941 159.355 217.941C154.723 217.941 150.968 214.188 150.968 209.559C150.968 204.929 154.723 201.176 159.355 201.176C163.987 201.176 167.742 204.929 167.742 209.559Z" fill="white"/>
<path d="M218.065 209.559C218.065 214.188 214.309 217.941 209.677 217.941C205.045 217.941 201.29 214.188 201.29 209.559C201.29 204.929 205.045 201.176 209.677 201.176C214.309 201.176 218.065 204.929 218.065 209.559Z" fill="white"/>
<path d="M268.387 209.559C268.387 214.188 264.632 217.941 260 217.941C255.368 217.941 251.613 214.188 251.613 209.559C251.613 204.929 255.368 201.176 260 201.176C264.632 201.176 268.387 204.929 268.387 209.559Z" fill="white"/>
<path d="M318.71 209.559C318.71 214.188 314.955 217.941 310.323 217.941C305.691 217.941 301.935 214.188 301.935 209.559C301.935 204.929 305.691 201.176 310.323 201.176C314.955 201.176 318.71 204.929 318.71 209.559Z" fill="white"/>
<path d="M369.032 209.559C369.032 214.188 365.277 217.941 360.645 217.941C356.013 217.941 352.258 214.188 352.258 209.559C352.258 204.929 356.013 201.176 360.645 201.176C365.277 201.176 369.032 204.929 369.032 209.559Z" fill="white"/>
<path d="M419.355 209.559C419.355 214.188 415.6 217.941 410.968 217.941C406.336 217.941 402.581 214.188 402.581 209.559C402.581 204.929 406.336 201.176 410.968 201.176C415.6 201.176 419.355 204.929 419.355 209.559Z" fill="white"/>
<path d="M469.677 209.559C469.677 214.188 465.922 217.941 461.29 217.941C456.658 217.941 452.903 214.188 452.903 209.559C452.903 204.929 456.658 201.176 461.29 201.176C465.922 201.176 469.677 204.929 469.677 209.559Z" fill="white"/>
<path d="M520 209.559C520 214.188 516.245 217.941 511.613 217.941C506.981 217.941 503.226 214.188 503.226 209.559C503.226 204.929 506.981 201.176 511.613 201.176C516.245 201.176 520 204.929 520 209.559Z" fill="white"/>
<path d="M16.7742 259.853C16.7742 264.482 13.0192 268.235 8.3871 268.235C3.75503 268.235 0 264.482 0 259.853C0 255.224 3.75503 251.471 8.3871 251.471C13.0192 251.471 16.7742 255.224 16.7742 259.853Z" fill="white"/>
<path d="M67.0968 259.853C67.0968 264.482 63.3417 268.235 58.7097 268.235C54.0776 268.235 50.3226 264.482 50.3226 259.853C50.3226 255.224 54.0776 251.471 58.7097 251.471C63.3417 251.471 67.0968 255.224 67.0968 259.853Z" fill="white"/>
<path d="M117.419 259.853C117.419 264.482 113.664 268.235 109.032 268.235C104.4 268.235 100.645 264.482 100.645 259.853C100.645 255.224 104.4 251.471 109.032 251.471C113.664 251.471 117.419 255.224 117.419 259.853Z" fill="white"/>
<path d="M167.742 259.853C167.742 264.482 163.987 268.235 159.355 268.235C154.723 268.235 150.968 264.482 150.968 259.853C150.968 255.224 154.723 251.471 159.355 251.471C163.987 251.471 167.742 255.224 167.742 259.853Z" fill="white"/>
<path d="M218.065 259.853C218.065 264.482 214.309 268.235 209.677 268.235C205.045 268.235 201.29 264.482 201.29 259.853C201.29 255.224 205.045 251.471 209.677 251.471C214.309 251.471 218.065 255.224 218.065 259.853Z" fill="white"/>
<path d="M268.387 259.853C268.387 264.482 264.632 268.235 260 268.235C255.368 268.235 251.613 264.482 251.613 259.853C251.613 255.224 255.368 251.471 260 251.471C264.632 251.471 268.387 255.224 268.387 259.853Z" fill="white"/>
<path d="M318.71 259.853C318.71 264.482 314.955 268.235 310.323 268.235C305.691 268.235 301.935 264.482 301.935 259.853C301.935 255.224 305.691 251.471 310.323 251.471C314.955 251.471 318.71 255.224 318.71 259.853Z" fill="white"/>
<path d="M369.032 259.853C369.032 264.482 365.277 268.235 360.645 268.235C356.013 268.235 352.258 264.482 352.258 259.853C352.258 255.224 356.013 251.471 360.645 251.471C365.277 251.471 369.032 255.224 369.032 259.853Z" fill="white"/>
<path d="M419.355 259.853C419.355 264.482 415.6 268.235 410.968 268.235C406.336 268.235 402.581 264.482 402.581 259.853C402.581 255.224 406.336 251.471 410.968 251.471C415.6 251.471 419.355 255.224 419.355 259.853Z" fill="white"/>
<path d="M469.677 259.853C469.677 264.482 465.922 268.235 461.29 268.235C456.658 268.235 452.903 264.482 452.903 259.853C452.903 255.224 456.658 251.471 461.29 251.471C465.922 251.471 469.677 255.224 469.677 259.853Z" fill="white"/>
<path d="M520 259.853C520 264.482 516.245 268.235 511.613 268.235C506.981 268.235 503.226 264.482 503.226 259.853C503.226 255.224 506.981 251.471 511.613 251.471C516.245 251.471 520 255.224 520 259.853Z" fill="white"/>
<path d="M16.7742 310.147C16.7742 314.777 13.0192 318.529 8.3871 318.529C3.75503 318.529 0 314.777 0 310.147C0 305.518 3.75503 301.765 8.3871 301.765C13.0192 301.765 16.7742 305.518 16.7742 310.147Z" fill="white"/>
<path d="M67.0968 310.147C67.0968 314.777 63.3417 318.529 58.7097 318.529C54.0776 318.529 50.3226 314.777 50.3226 310.147C50.3226 305.518 54.0776 301.765 58.7097 301.765C63.3417 301.765 67.0968 305.518 67.0968 310.147Z" fill="white"/>
<path d="M117.419 310.147C117.419 314.777 113.664 318.529 109.032 318.529C104.4 318.529 100.645 314.777 100.645 310.147C100.645 305.518 104.4 301.765 109.032 301.765C113.664 301.765 117.419 305.518 117.419 310.147Z" fill="white"/>
<path d="M167.742 310.147C167.742 314.777 163.987 318.529 159.355 318.529C154.723 318.529 150.968 314.777 150.968 310.147C150.968 305.518 154.723 301.765 159.355 301.765C163.987 301.765 167.742 305.518 167.742 310.147Z" fill="white"/>
<path d="M218.065 310.147C218.065 314.777 214.309 318.529 209.677 318.529C205.045 318.529 201.29 314.777 201.29 310.147C201.29 305.518 205.045 301.765 209.677 301.765C214.309 301.765 218.065 305.518 218.065 310.147Z" fill="white"/>
<path d="M268.387 310.147C268.387 314.777 264.632 318.529 260 318.529C255.368 318.529 251.613 314.777 251.613 310.147C251.613 305.518 255.368 301.765 260 301.765C264.632 301.765 268.387 305.518 268.387 310.147Z" fill="white"/>
<path d="M318.71 310.147C318.71 314.777 314.955 318.529 310.323 318.529C305.691 318.529 301.935 314.777 301.935 310.147C301.935 305.518 305.691 301.765 310.323 301.765C314.955 301.765 318.71 305.518 318.71 310.147Z" fill="white"/>
<path d="M369.032 310.147C369.032 314.777 365.277 318.529 360.645 318.529C356.013 318.529 352.258 314.777 352.258 310.147C352.258 305.518 356.013 301.765 360.645 301.765C365.277 301.765 369.032 305.518 369.032 310.147Z" fill="white"/>
<path d="M419.355 310.147C419.355 314.777 415.6 318.529 410.968 318.529C406.336 318.529 402.581 314.777 402.581 310.147C402.581 305.518 406.336 301.765 410.968 301.765C415.6 301.765 419.355 305.518 419.355 310.147Z" fill="white"/>
<path d="M469.677 310.147C469.677 314.777 465.922 318.529 461.29 318.529C456.658 318.529 452.903 314.777 452.903 310.147C452.903 305.518 456.658 301.765 461.29 301.765C465.922 301.765 469.677 305.518 469.677 310.147Z" fill="white"/>
<path d="M520 310.147C520 314.777 516.245 318.529 511.613 318.529C506.981 318.529 503.226 314.777 503.226 310.147C503.226 305.518 506.981 301.765 511.613 301.765C516.245 301.765 520 305.518 520 310.147Z" fill="white"/>
<path d="M16.7742 360.441C16.7742 365.071 13.0192 368.824 8.3871 368.824C3.75503 368.824 0 365.071 0 360.441C0 355.812 3.75503 352.059 8.3871 352.059C13.0192 352.059 16.7742 355.812 16.7742 360.441Z" fill="white"/>
<path d="M67.0968 360.441C67.0968 365.071 63.3417 368.824 58.7097 368.824C54.0776 368.824 50.3226 365.071 50.3226 360.441C50.3226 355.812 54.0776 352.059 58.7097 352.059C63.3417 352.059 67.0968 355.812 67.0968 360.441Z" fill="white"/>
<path d="M117.419 360.441C117.419 365.071 113.664 368.824 109.032 368.824C104.4 368.824 100.645 365.071 100.645 360.441C100.645 355.812 104.4 352.059 109.032 352.059C113.664 352.059 117.419 355.812 117.419 360.441Z" fill="white"/>
<path d="M167.742 360.441C167.742 365.071 163.987 368.824 159.355 368.824C154.723 368.824 150.968 365.071 150.968 360.441C150.968 355.812 154.723 352.059 159.355 352.059C163.987 352.059 167.742 355.812 167.742 360.441Z" fill="white"/>
<path d="M218.065 360.441C218.065 365.071 214.309 368.824 209.677 368.824C205.045 368.824 201.29 365.071 201.29 360.441C201.29 355.812 205.045 352.059 209.677 352.059C214.309 352.059 218.065 355.812 218.065 360.441Z" fill="white"/>
<path d="M268.387 360.441C268.387 365.071 264.632 368.824 260 368.824C255.368 368.824 251.613 365.071 251.613 360.441C251.613 355.812 255.368 352.059 260 352.059C264.632 352.059 268.387 355.812 268.387 360.441Z" fill="white"/>
<path d="M318.71 360.441C318.71 365.071 314.955 368.824 310.323 368.824C305.691 368.824 301.935 365.071 301.935 360.441C301.935 355.812 305.691 352.059 310.323 352.059C314.955 352.059 318.71 355.812 318.71 360.441Z" fill="white"/>
<path d="M369.032 360.441C369.032 365.071 365.277 368.824 360.645 368.824C356.013 368.824 352.258 365.071 352.258 360.441C352.258 355.812 356.013 352.059 360.645 352.059C365.277 352.059 369.032 355.812 369.032 360.441Z" fill="white"/>
<path d="M419.355 360.441C419.355 365.071 415.6 368.824 410.968 368.824C406.336 368.824 402.581 365.071 402.581 360.441C402.581 355.812 406.336 352.059 410.968 352.059C415.6 352.059 419.355 355.812 419.355 360.441Z" fill="white"/>
<path d="M469.677 360.441C469.677 365.071 465.922 368.824 461.29 368.824C456.658 368.824 452.903 365.071 452.903 360.441C452.903 355.812 456.658 352.059 461.29 352.059C465.922 352.059 469.677 355.812 469.677 360.441Z" fill="white"/>
<path d="M520 360.441C520 365.071 516.245 368.824 511.613 368.824C506.981 368.824 503.226 365.071 503.226 360.441C503.226 355.812 506.981 352.059 511.613 352.059C516.245 352.059 520 355.812 520 360.441Z" fill="white"/>
<path d="M16.7742 410.735C16.7742 415.365 13.0192 419.118 8.3871 419.118C3.75503 419.118 0 415.365 0 410.735C0 406.106 3.75503 402.353 8.3871 402.353C13.0192 402.353 16.7742 406.106 16.7742 410.735Z" fill="white"/>
<path d="M67.0968 410.735C67.0968 415.365 63.3417 419.118 58.7097 419.118C54.0776 419.118 50.3226 415.365 50.3226 410.735C50.3226 406.106 54.0776 402.353 58.7097 402.353C63.3417 402.353 67.0968 406.106 67.0968 410.735Z" fill="white"/>
<path d="M117.419 410.735C117.419 415.365 113.664 419.118 109.032 419.118C104.4 419.118 100.645 415.365 100.645 410.735C100.645 406.106 104.4 402.353 109.032 402.353C113.664 402.353 117.419 406.106 117.419 410.735Z" fill="white"/>
<path d="M167.742 410.735C167.742 415.365 163.987 419.118 159.355 419.118C154.723 419.118 150.968 415.365 150.968 410.735C150.968 406.106 154.723 402.353 159.355 402.353C163.987 402.353 167.742 406.106 167.742 410.735Z" fill="white"/>
<path d="M218.065 410.735C218.065 415.365 214.309 419.118 209.677 419.118C205.045 419.118 201.29 415.365 201.29 410.735C201.29 406.106 205.045 402.353 209.677 402.353C214.309 402.353 218.065 406.106 218.065 410.735Z" fill="white"/>
<path d="M268.387 410.735C268.387 415.365 264.632 419.118 260 419.118C255.368 419.118 251.613 415.365 251.613 410.735C251.613 406.106 255.368 402.353 260 402.353C264.632 402.353 268.387 406.106 268.387 410.735Z" fill="white"/>
<path d="M318.71 410.735C318.71 415.365 314.955 419.118 310.323 419.118C305.691 419.118 301.935 415.365 301.935 410.735C301.935 406.106 305.691 402.353 310.323 402.353C314.955 402.353 318.71 406.106 318.71 410.735Z" fill="white"/>
<path d="M369.032 410.735C369.032 415.365 365.277 419.118 360.645 419.118C356.013 419.118 352.258 415.365 352.258 410.735C352.258 406.106 356.013 402.353 360.645 402.353C365.277 402.353 369.032 406.106 369.032 410.735Z" fill="white"/>
<path d="M419.355 410.735C419.355 415.365 415.6 419.118 410.968 419.118C406.336 419.118 402.581 415.365 402.581 410.735C402.581 406.106 406.336 402.353 410.968 402.353C415.6 402.353 419.355 406.106 419.355 410.735Z" fill="white"/>
<path d="M469.677 410.735C469.677 415.365 465.922 419.118 461.29 419.118C456.658 419.118 452.903 415.365 452.903 410.735C452.903 406.106 456.658 402.353 461.29 402.353C465.922 402.353 469.677 406.106 469.677 410.735Z" fill="white"/>
<path d="M520 410.735C520 415.365 516.245 419.118 511.613 419.118C506.981 419.118 503.226 415.365 503.226 410.735C503.226 406.106 506.981 402.353 511.613 402.353C516.245 402.353 520 406.106 520 410.735Z" fill="white"/>
<path d="M16.7742 461.029C16.7742 465.659 13.0192 469.412 8.3871 469.412C3.75503 469.412 0 465.659 0 461.029C0 456.4 3.75503 452.647 8.3871 452.647C13.0192 452.647 16.7742 456.4 16.7742 461.029Z" fill="white"/>
<path d="M67.0968 461.029C67.0968 465.659 63.3417 469.412 58.7097 469.412C54.0776 469.412 50.3226 465.659 50.3226 461.029C50.3226 456.4 54.0776 452.647 58.7097 452.647C63.3417 452.647 67.0968 456.4 67.0968 461.029Z" fill="white"/>
<path d="M117.419 461.029C117.419 465.659 113.664 469.412 109.032 469.412C104.4 469.412 100.645 465.659 100.645 461.029C100.645 456.4 104.4 452.647 109.032 452.647C113.664 452.647 117.419 456.4 117.419 461.029Z" fill="white"/>
<path d="M167.742 461.029C167.742 465.659 163.987 469.412 159.355 469.412C154.723 469.412 150.968 465.659 150.968 461.029C150.968 456.4 154.723 452.647 159.355 452.647C163.987 452.647 167.742 456.4 167.742 461.029Z" fill="white"/>
<path d="M218.065 461.029C218.065 465.659 214.309 469.412 209.677 469.412C205.045 469.412 201.29 465.659 201.29 461.029C201.29 456.4 205.045 452.647 209.677 452.647C214.309 452.647 218.065 456.4 218.065 461.029Z" fill="white"/>
<path d="M268.387 461.029C268.387 465.659 264.632 469.412 260 469.412C255.368 469.412 251.613 465.659 251.613 461.029C251.613 456.4 255.368 452.647 260 452.647C264.632 452.647 268.387 456.4 268.387 461.029Z" fill="white"/>
<path d="M318.71 461.029C318.71 465.659 314.955 469.412 310.323 469.412C305.691 469.412 301.935 465.659 301.935 461.029C301.935 456.4 305.691 452.647 310.323 452.647C314.955 452.647 318.71 456.4 318.71 461.029Z" fill="white"/>
<path d="M369.032 461.029C369.032 465.659 365.277 469.412 360.645 469.412C356.013 469.412 352.258 465.659 352.258 461.029C352.258 456.4 356.013 452.647 360.645 452.647C365.277 452.647 369.032 456.4 369.032 461.029Z" fill="white"/>
<path d="M419.355 461.029C419.355 465.659 415.6 469.412 410.968 469.412C406.336 469.412 402.581 465.659 402.581 461.029C402.581 456.4 406.336 452.647 410.968 452.647C415.6 452.647 419.355 456.4 419.355 461.029Z" fill="white"/>
<path d="M469.677 461.029C469.677 465.659 465.922 469.412 461.29 469.412C456.658 469.412 452.903 465.659 452.903 461.029C452.903 456.4 456.658 452.647 461.29 452.647C465.922 452.647 469.677 456.4 469.677 461.029Z" fill="white"/>
<path d="M520 461.029C520 465.659 516.245 469.412 511.613 469.412C506.981 469.412 503.226 465.659 503.226 461.029C503.226 456.4 506.981 452.647 511.613 452.647C516.245 452.647 520 456.4 520 461.029Z" fill="white"/>
<path d="M16.7742 511.324C16.7742 515.953 13.0192 519.706 8.3871 519.706C3.75503 519.706 0 515.953 0 511.324C0 506.694 3.75503 502.941 8.3871 502.941C13.0192 502.941 16.7742 506.694 16.7742 511.324Z" fill="white"/>
<path d="M67.0968 511.324C67.0968 515.953 63.3417 519.706 58.7097 519.706C54.0776 519.706 50.3226 515.953 50.3226 511.324C50.3226 506.694 54.0776 502.941 58.7097 502.941C63.3417 502.941 67.0968 506.694 67.0968 511.324Z" fill="white"/>
<path d="M117.419 511.324C117.419 515.953 113.664 519.706 109.032 519.706C104.4 519.706 100.645 515.953 100.645 511.324C100.645 506.694 104.4 502.941 109.032 502.941C113.664 502.941 117.419 506.694 117.419 511.324Z" fill="white"/>
<path d="M167.742 511.324C167.742 515.953 163.987 519.706 159.355 519.706C154.723 519.706 150.968 515.953 150.968 511.324C150.968 506.694 154.723 502.941 159.355 502.941C163.987 502.941 167.742 506.694 167.742 511.324Z" fill="white"/>
<path d="M218.065 511.324C218.065 515.953 214.309 519.706 209.677 519.706C205.045 519.706 201.29 515.953 201.29 511.324C201.29 506.694 205.045 502.941 209.677 502.941C214.309 502.941 218.065 506.694 218.065 511.324Z" fill="white"/>
<path d="M268.387 511.324C268.387 515.953 264.632 519.706 260 519.706C255.368 519.706 251.613 515.953 251.613 511.324C251.613 506.694 255.368 502.941 260 502.941C264.632 502.941 268.387 506.694 268.387 511.324Z" fill="white"/>
<path d="M318.71 511.324C318.71 515.953 314.955 519.706 310.323 519.706C305.691 519.706 301.935 515.953 301.935 511.324C301.935 506.694 305.691 502.941 310.323 502.941C314.955 502.941 318.71 506.694 318.71 511.324Z" fill="white"/>
<path d="M369.032 511.324C369.032 515.953 365.277 519.706 360.645 519.706C356.013 519.706 352.258 515.953 352.258 511.324C352.258 506.694 356.013 502.941 360.645 502.941C365.277 502.941 369.032 506.694 369.032 511.324Z" fill="white"/>
<path d="M419.355 511.324C419.355 515.953 415.6 519.706 410.968 519.706C406.336 519.706 402.581 515.953 402.581 511.324C402.581 506.694 406.336 502.941 410.968 502.941C415.6 502.941 419.355 506.694 419.355 511.324Z" fill="white"/>
<path d="M469.677 511.324C469.677 515.953 465.922 519.706 461.29 519.706C456.658 519.706 452.903 515.953 452.903 511.324C452.903 506.694 456.658 502.941 461.29 502.941C465.922 502.941 469.677 506.694 469.677 511.324Z" fill="white"/>
<path d="M520 511.324C520 515.953 516.245 519.706 511.613 519.706C506.981 519.706 503.226 515.953 503.226 511.324C503.226 506.694 506.981 502.941 511.613 502.941C516.245 502.941 520 506.694 520 511.324Z" fill="white"/>
<path d="M16.7742 561.618C16.7742 566.247 13.0192 570 8.3871 570C3.75503 570 0 566.247 0 561.618C0 556.988 3.75503 553.235 8.3871 553.235C13.0192 553.235 16.7742 556.988 16.7742 561.618Z" fill="white"/>
<path d="M67.0968 561.618C67.0968 566.247 63.3417 570 58.7097 570C54.0776 570 50.3226 566.247 50.3226 561.618C50.3226 556.988 54.0776 553.235 58.7097 553.235C63.3417 553.235 67.0968 556.988 67.0968 561.618Z" fill="white"/>
<path d="M117.419 561.618C117.419 566.247 113.664 570 109.032 570C104.4 570 100.645 566.247 100.645 561.618C100.645 556.988 104.4 553.235 109.032 553.235C113.664 553.235 117.419 556.988 117.419 561.618Z" fill="white"/>
<path d="M167.742 561.618C167.742 566.247 163.987 570 159.355 570C154.723 570 150.968 566.247 150.968 561.618C150.968 556.988 154.723 553.235 159.355 553.235C163.987 553.235 167.742 556.988 167.742 561.618Z" fill="white"/>
<path d="M218.065 561.618C218.065 566.247 214.309 570 209.677 570C205.045 570 201.29 566.247 201.29 561.618C201.29 556.988 205.045 553.235 209.677 553.235C214.309 553.235 218.065 556.988 218.065 561.618Z" fill="white"/>
<path d="M268.387 561.618C268.387 566.247 264.632 570 260 570C255.368 570 251.613 566.247 251.613 561.618C251.613 556.988 255.368 553.235 260 553.235C264.632 553.235 268.387 556.988 268.387 561.618Z" fill="white"/>
<path d="M318.71 561.618C318.71 566.247 314.955 570 310.323 570C305.691 570 301.935 566.247 301.935 561.618C301.935 556.988 305.691 553.235 310.323 553.235C314.955 553.235 318.71 556.988 318.71 561.618Z" fill="white"/>
<path d="M369.032 561.618C369.032 566.247 365.277 570 360.645 570C356.013 570 352.258 566.247 352.258 561.618C352.258 556.988 356.013 553.235 360.645 553.235C365.277 553.235 369.032 556.988 369.032 561.618Z" fill="white"/>
<path d="M419.355 561.618C419.355 566.247 415.6 570 410.968 570C406.336 570 402.581 566.247 402.581 561.618C402.581 556.988 406.336 553.235 410.968 553.235C415.6 553.235 419.355 556.988 419.355 561.618Z" fill="white"/>
<path d="M469.677 561.618C469.677 566.247 465.922 570 461.29 570C456.658 570 452.903 566.247 452.903 561.618C452.903 556.988 456.658 553.235 461.29 553.235C465.922 553.235 469.677 556.988 469.677 561.618Z" fill="white"/>
<path d="M520 561.618C520 566.247 516.245 570 511.613 570C506.981 570 503.226 566.247 503.226 561.618C503.226 556.988 506.981 553.235 511.613 553.235C516.245 553.235 520 556.988 520 561.618Z" fill="white"/>
</svg>
