<svg width="139" height="82" viewBox="0 0 139 82" fill="none" xmlns="http://www.w3.org/2000/svg">
<path d="M112.437 81.5C113.961 81.5 115.369 80.6887 116.165 79.3664L137.845 43.3664C138.718 41.9162 138.718 40.0838 137.845 38.6336L116.165 2.63361C115.369 1.31129 113.961 0.5 112.437 0.5H92.2675C88.8086 0.5 86.7471 4.39072 88.5391 7.36639L107.679 39.1495C108.361 40.2823 108.361 41.7177 107.679 42.8505L88.5391 74.6336C86.7471 77.6093 88.8086 81.5 92.2675 81.5L112.437 81.5ZM68.748 81.5C70.2716 81.5 71.6801 80.6887 72.4764 79.3664L94.1561 43.3664C95.0294 41.9162 95.0294 40.0838 94.1561 38.6336L72.4764 2.63361C71.6801 1.31129 70.2716 0.5 68.748 0.5H48.5786C45.1196 0.5 43.0581 4.39072 44.8501 7.36639L63.9902 39.1495C64.6724 40.2823 64.6724 41.7177 63.9902 42.8505L44.8501 74.6336C43.0581 77.6093 45.1196 81.5 48.5786 81.5L68.748 81.5ZM25.059 81.5C26.5827 81.5 27.9912 80.6887 28.7875 79.3664L50.4671 43.3664C51.3404 41.9162 51.3404 40.0838 50.4671 38.6336L28.7875 2.63361C27.9912 1.31129 26.5827 0.5 25.059 0.5H4.88963C1.43067 0.5 -0.630829 4.39072 1.16116 7.36639L20.3013 39.1495C20.9835 40.2823 20.9835 41.7177 20.3013 42.8505L1.16116 74.6336C-0.630831 77.6093 1.43068 81.5 4.88964 81.5L25.059 81.5Z" stroke="white" stroke-linecap="round"/>
</svg>
